<svg width="24" height="24" viewBox="0 0 24 24" fill="none" xmlns="http://www.w3.org/2000/svg">
<path fill-rule="evenodd" clip-rule="evenodd" d="M7.70711 5.29289C7.31658 4.90237 6.68342 4.90237 6.29289 5.29289C5.90237 5.68342 5.90237 6.31658 6.29289 6.70711L11.5858 12L6.29289 17.2929C5.90237 17.6834 5.90237 18.3166 6.29289 18.7071C6.68342 19.0976 7.31658 19.0976 7.70711 18.7071L13.7071 12.7071C14.0976 12.3166 14.0976 11.6834 13.7071 11.2929L7.70711 5.29289Z" fill="#B8C4D3"/>
<path fill-rule="evenodd" clip-rule="evenodd" d="M12.7071 5.29289C12.3166 4.90237 11.6834 4.90237 11.2929 5.29289C10.9024 5.68342 10.9024 6.31658 11.2929 6.70711L16.5858 12L11.2929 17.2929C10.9024 17.6834 10.9024 18.3166 11.2929 18.7071C11.6834 19.0976 12.3166 19.0976 12.7071 18.7071L18.7071 12.7071C19.0976 12.3166 19.0976 11.6834 18.7071 11.2929L12.7071 5.29289Z" fill="#B8C4D3"/>
</svg>
