<svg width="24" height="24" viewBox="0 0 24 24" fill="none" xmlns="http://www.w3.org/2000/svg">
<path fill-rule="evenodd" clip-rule="evenodd" d="M15.2929 7.29289C15.6834 6.90237 16.3166 6.90237 16.7071 7.29289L20.7065 11.2923L20.7071 11.2929C20.803 11.3888 20.8753 11.4993 20.9241 11.6172C20.973 11.7351 21 11.8644 21 12C21 12.135 20.9732 12.2639 20.9247 12.3814C20.9006 12.4398 20.8708 12.4963 20.8352 12.5502C20.7986 12.6057 20.7559 12.6583 20.7071 12.7071L20.7065 12.7077L16.7071 16.7071C16.3166 17.0976 15.6834 17.0976 15.2929 16.7071C14.9024 16.3166 14.9024 15.6834 15.2929 15.2929L17.5858 13H4C3.44771 13 3 12.5523 3 12C3 11.4477 3.44771 11 4 11H17.5858L15.2929 8.70711C14.9024 8.31658 14.9024 7.68342 15.2929 7.29289Z" fill="#B8C4D3"/>
</svg>
