<svg width="24" height="24" viewBox="0 0 24 24" fill="none" xmlns="http://www.w3.org/2000/svg">
<path fill-rule="evenodd" clip-rule="evenodd" d="M8.70711 16.7071C8.31658 17.0976 7.68342 17.0976 7.29289 16.7071L3.29348 12.7077L3.29289 12.7071C3.19702 12.6112 3.12468 12.5007 3.07588 12.3828C3.02699 12.2649 3 12.1356 3 12C3 11.865 3.02677 11.7362 3.0753 11.6186C3.09935 11.5602 3.12917 11.5037 3.16475 11.4498C3.20137 11.3943 3.24408 11.3417 3.29289 11.2929L3.29348 11.2923L7.29289 7.29289C7.68342 6.90237 8.31658 6.90237 8.70711 7.29289C9.09763 7.68342 9.09763 8.31658 8.70711 8.70711L6.41421 11H20C20.5523 11 21 11.4477 21 12C21 12.5523 20.5523 13 20 13H6.41421L8.70711 15.2929C9.09763 15.6834 9.09763 16.3166 8.70711 16.7071Z" fill="#B8C4D3"/>
</svg>
