<svg width="24" height="24" viewBox="0 0 24 24" fill="none" xmlns="http://www.w3.org/2000/svg">
<path fill-rule="evenodd" clip-rule="evenodd" d="M12 2.86197e-08C10.6745 1.28135e-08 9.59998 1.07452 9.59998 2.4L9.59998 14.4C9.59998 15.7255 10.6745 16.8 12 16.8C13.3255 16.8 14.4 15.7255 14.4 14.4L14.4 2.4C14.4 1.07452 13.3255 4.4426e-08 12 2.86197e-08ZM12 19.2C10.6745 19.2 9.59998 20.2745 9.59998 21.6C9.59998 22.9255 10.6745 24 12 24C13.3255 24 14.4 22.9255 14.4 21.6C14.4 20.2745 13.3255 19.2 12 19.2Z" fill="#B8C4D3"/>
</svg>
