<svg width="24" height="24" viewBox="0 0 24 24" fill="none" xmlns="http://www.w3.org/2000/svg">
<path fill-rule="evenodd" clip-rule="evenodd" d="M19.3647 8.88515C18.9411 7.89885 18.3733 7.0491 17.6614 6.33624C16.9498 5.6233 16.0989 5.05558 15.1093 4.63336C14.12 4.21115 13.0833 4 12.0001 4C10.9168 4 9.8803 4.21125 8.89071 4.63336C7.90108 5.05558 7.05035 5.62319 6.3386 6.33624C5.62681 7.0491 5.05899 7.89885 4.63539 8.88515C4.21183 9.87153 4 10.9082 4 11.9948C4 13.0815 4.21183 14.1198 4.63539 15.1095C5.05909 16.0996 5.62677 16.9507 6.3386 17.6638C7.05035 18.3768 7.90108 18.9445 8.89071 19.3664C9.8803 19.7888 10.9168 20 12.0001 20C13.0835 20 14.12 19.7888 15.1093 19.3664C16.0989 18.9443 16.9498 18.3768 17.6614 17.6638C18.3733 16.9507 18.9411 16.0995 19.3647 15.1095C19.7883 14.1197 20 13.0814 20 11.9948C19.9999 10.9082 19.7883 9.87153 19.3647 8.88515ZM7.26041 15.0989C6.64235 14.151 6.33332 13.1158 6.33346 11.9945C6.33346 10.9702 6.587 10.0219 7.09393 9.14966C7.60074 8.27751 8.28838 7.58883 9.15633 7.08337C10.0244 6.57809 10.9723 6.32552 12.0001 6.32552C13.1461 6.32552 14.1875 6.64049 15.1251 7.27037L7.26041 15.0989ZM17.2185 14.2015C16.9198 14.9041 16.5173 15.5081 16.0104 16.0134C15.5032 16.5188 14.9009 16.922 14.2029 17.2228C13.5049 17.5238 12.7705 17.6745 11.9999 17.6745C10.8888 17.6745 9.85755 17.3667 8.90612 16.7503L16.7604 8.93203C17.3648 9.85957 17.6666 10.8806 17.6666 11.995C17.6665 12.7634 17.5171 13.4988 17.2185 14.2015Z" fill="#568BF1"/>
</svg>
