<svg width="24" height="24" viewBox="0 0 24 24" fill="none" xmlns="http://www.w3.org/2000/svg">
<path fill-rule="evenodd" clip-rule="evenodd" d="M14.7587 4C14.3017 4 13.9312 4.37052 13.9312 4.82758V9.69087C13.9312 10.1479 14.3017 10.5185 14.7587 10.5185C14.7681 10.5185 14.7775 10.5183 14.7868 10.518C14.7979 10.5184 14.809 10.5186 14.8201 10.5186H19.1112C19.6022 10.5186 20.0001 10.1206 20.0001 9.62972C20.0001 9.13881 19.6022 8.74083 19.1112 8.74083H15.5864V4.82758C15.5864 4.37052 15.2158 4 14.7587 4Z" fill="#B8C4D3"/>
<path fill-rule="evenodd" clip-rule="evenodd" d="M4 9.62948C4 10.1204 4.39796 10.5183 4.88888 10.5183H9.18003C9.18997 10.5183 9.19987 10.5182 9.20974 10.5179C9.2202 10.5183 9.23072 10.5185 9.24128 10.5185C9.69833 10.5185 10.0689 10.1479 10.0689 9.69088V9.63957C10.0689 9.63621 10.0689 9.63284 10.0689 9.62948C10.0689 9.6261 10.0689 9.62273 10.0689 9.61937V4.82758C10.0689 4.37052 9.69833 4 9.24128 4C8.78422 4 8.41369 4.37052 8.41369 4.82758V8.74059H4.88888C4.39797 8.74059 4 9.13856 4 9.62948Z" fill="#B8C4D3"/>
<path fill-rule="evenodd" clip-rule="evenodd" d="M4.00012 14.3704C4.00012 13.8795 4.39809 13.4815 4.889 13.4815H9.18015C9.19009 13.4815 9.19999 13.4817 9.20987 13.482C9.22032 13.4816 9.23084 13.4814 9.2414 13.4814C9.69846 13.4814 10.069 13.852 10.069 14.309V14.3603C10.069 14.3637 10.069 14.3671 10.069 14.3704C10.069 14.3738 10.069 14.3772 10.069 14.3805V19.1724C10.069 19.6294 9.69846 19.9999 9.2414 19.9999C8.78434 19.9999 8.41382 19.6294 8.41382 19.1724V15.2593H4.889C4.39809 15.2593 4.00012 14.8613 4.00012 14.3704Z" fill="#B8C4D3"/>
<path fill-rule="evenodd" clip-rule="evenodd" d="M14.7587 19.9998C14.3017 19.9998 13.9312 19.6293 13.9312 19.1723V14.3089C13.9312 13.8519 14.3017 13.4813 14.7587 13.4813C14.7681 13.4813 14.7775 13.4815 14.7868 13.4818C14.7979 13.4814 14.809 13.4812 14.8201 13.4812H19.1112C19.6022 13.4812 20.0001 13.8792 20.0001 14.3701C20.0001 14.861 19.6022 15.259 19.1112 15.259H15.5864V19.1723C15.5864 19.6293 15.2158 19.9998 14.7587 19.9998Z" fill="#B8C4D3"/>
</svg>
