<svg width="24" height="24" viewBox="0 0 24 24" fill="none" xmlns="http://www.w3.org/2000/svg">
<path fill-rule="evenodd" clip-rule="evenodd" d="M4.96624 19L19.0338 19C19.7717 19 20.2365 18.2292 19.8747 17.6054L12.8409 5.47705C12.4721 4.84098 11.5279 4.84098 11.1591 5.47705L4.12531 17.6054C3.76353 18.2292 4.22831 19 4.96624 19ZM11.3848 9.43343C11.3848 9.09356 11.6603 8.81805 12.0002 8.81805C12.34 8.81805 12.6155 9.09356 12.6155 9.43343L12.6155 14.5663C12.6155 14.9062 12.34 15.1817 12.0002 15.1817C11.6603 15.1817 11.3848 14.9062 11.3848 14.5663L11.3848 9.43343ZM11.9998 15.8177C11.6599 15.8177 11.3844 16.0932 11.3844 16.4331L11.3844 16.475C11.3844 16.8149 11.6599 17.0904 11.9998 17.0904C12.3396 17.0904 12.6152 16.8149 12.6152 16.475L12.6152 16.4331C12.6152 16.0932 12.3396 15.8177 11.9998 15.8177Z" fill="#B8C4D3"/>
</svg>
