<svg width="24" height="24" viewBox="0 0 24 24" fill="none" xmlns="http://www.w3.org/2000/svg">
<path d="M21.8723 11.9668C22.0426 12.2144 22.0426 12.5291 21.8723 12.7766C21.7123 13.0088 17.8924 18.4607 12 18.4607C11.0843 18.4554 10.175 18.3212 9.30422 18.0626L19.1374 9.08143C20.1789 9.93377 21.0978 10.9033 21.8723 11.9668ZM20.9215 4.22246C21.2468 4.51968 21.2468 5.00147 20.9215 5.29868L5.08848 19.7599C4.88036 19.9623 4.56805 20.0451 4.27359 19.976C3.97913 19.9069 3.74926 19.6968 3.67379 19.4278C3.59832 19.1588 3.68923 18.8736 3.91101 18.6837L6.17679 16.6142C4.58975 15.5633 3.21891 14.264 2.12771 12.7766C1.95743 12.5291 1.95743 12.2144 2.12771 11.9668C2.28771 11.7347 6.10763 6.28281 12 6.28281C13.524 6.29683 15.0213 6.64976 16.3624 7.31107L19.744 4.22246C20.0693 3.92585 20.5962 3.92585 20.9215 4.22246ZM8.66674 12.3717C8.67039 12.9122 8.8358 13.4415 9.14506 13.9023L13.6766 9.76415C13.172 9.48122 12.5921 9.33012 12 9.32727C10.1591 9.32727 8.66674 10.6903 8.66674 12.3717Z" fill="#B8C4D3"/>
</svg>
