<svg width="24" height="24" viewBox="0 0 24 24" fill="none" xmlns="http://www.w3.org/2000/svg">
<path fill-rule="evenodd" clip-rule="evenodd" d="M12 6C8.1788 6 4.71351 8.10432 2.15649 11.5223C1.94784 11.8023 1.94784 12.1935 2.15649 12.4736C4.71351 15.8956 8.1788 18 12 18C15.8212 18 19.2865 15.8956 21.8436 12.4777C22.0521 12.1977 22.0521 11.8064 21.8436 11.5264C19.2865 8.10432 15.8212 6 12 6ZM12.2741 16.2251C9.73753 16.3857 7.64282 14.2814 7.80238 11.7241C7.9333 9.61564 9.63117 7.90666 11.7259 7.77488C14.2624 7.61428 16.3571 9.7186 16.1976 12.2759C16.0626 14.3802 14.3648 16.0892 12.2741 16.2251ZM12.1473 14.2731C10.7808 14.3596 9.65161 13.2271 9.74161 11.8517C9.81116 10.7151 10.7276 9.79682 11.8568 9.7227C13.2233 9.63621 14.3524 10.7687 14.2624 12.1441C14.1888 13.2848 13.2723 14.2031 12.1473 14.2731Z" fill="#B8C4D3"/>
</svg>
