<svg width="24" height="24" viewBox="0 0 24 24" fill="none" xmlns="http://www.w3.org/2000/svg">
<path fill-rule="evenodd" clip-rule="evenodd" d="M19.1724 10.5188C19.6295 10.5188 20 10.1483 20 9.69122L20 4.82793C20 4.37086 19.6295 4.00035 19.1724 4.00035C19.163 4.00035 19.1537 4.0005 19.1444 4.00082C19.1333 4.00041 19.1222 4.00021 19.111 4.00021L14.8199 4.00021C14.329 4.00021 13.931 4.39817 13.931 4.88909C13.931 5.38 14.329 5.77797 14.8199 5.77797L18.3448 5.77797L18.3448 9.69122C18.3448 10.1483 18.7154 10.5188 19.1724 10.5188Z" fill="#B8C4D3"/>
<path fill-rule="evenodd" clip-rule="evenodd" d="M10.0688 4.88933C10.0688 4.39842 9.67088 4.00046 9.17997 4.00046L4.88882 4.00046C4.87888 4.00046 4.86898 4.00062 4.85911 4.00094C4.84865 4.00055 4.83814 4.00036 4.82758 4.00036C4.37052 4.00036 4 4.37087 4 4.82792L4 4.87924C3.99997 4.8826 3.99995 4.88597 3.99995 4.88933C3.99995 4.8927 3.99997 4.89607 4 4.89943L4 9.69122C4 10.1483 4.37052 10.5188 4.82758 10.5188C5.28464 10.5188 5.65516 10.1483 5.65516 9.69122L5.65516 5.77821L9.17997 5.77821C9.67088 5.77821 10.0688 5.38025 10.0688 4.88933Z" fill="#B8C4D3"/>
<path fill-rule="evenodd" clip-rule="evenodd" d="M10.0688 19.111C10.0688 19.6019 9.67088 19.9999 9.17997 19.9999L4.88882 19.9999C4.87888 19.9999 4.86898 19.9997 4.85911 19.9994C4.84865 19.9998 4.83814 20 4.82758 20C4.37052 20 4 19.6295 4 19.1724L4 19.1211C3.99996 19.1178 3.99995 19.1144 3.99995 19.111C3.99995 19.1077 3.99996 19.1043 4 19.1009L4 14.3091C4 13.8521 4.37052 13.4815 4.82758 13.4815C5.28464 13.4815 5.65516 13.8521 5.65516 14.3091L5.65516 18.2221L9.17997 18.2221C9.67088 18.2221 10.0688 18.6201 10.0688 19.111Z" fill="#B8C4D3"/>
<path fill-rule="evenodd" clip-rule="evenodd" d="M19.1724 13.4814C19.6295 13.4814 20 13.8519 20 14.3089L20 19.1723C20 19.6293 19.6295 19.9999 19.1724 19.9999C19.163 19.9999 19.1537 19.9997 19.1444 19.9994C19.1333 19.9998 19.1222 20 19.111 20L14.8199 20C14.3289 20 13.931 19.602 13.931 19.1111C13.931 18.6202 14.329 18.2222 14.8199 18.2222L18.3448 18.2222L18.3448 14.3089C18.3448 13.8519 18.7154 13.4814 19.1724 13.4814Z" fill="#B8C4D3"/>
</svg>
