<svg width="24" height="24" viewBox="0 0 24 24" fill="none" xmlns="http://www.w3.org/2000/svg">
<path fill-rule="evenodd" clip-rule="evenodd" d="M3.81824 5.77771H20.1819V18.2222H3.81824V5.77771ZM2 5.77778C2 4.79594 2.81403 4 3.81818 4H20.1818C21.186 4 22 4.79594 22 5.77778V18.2222C22 19.2041 21.186 20 20.1818 20H3.81818C2.81403 20 2 19.2041 2 18.2222V5.77778ZM18.3637 9.33344C18.3637 10.3153 17.5497 11.1112 16.5455 11.1112C15.5413 11.1112 14.7273 10.3153 14.7273 9.33344C14.7273 8.3516 15.5413 7.55566 16.5455 7.55566C17.5497 7.55566 18.3637 8.3516 18.3637 9.33344ZM18.3636 16.4445H5.63635V12.5556L7.83207 10.7441C8.19062 10.4483 8.72047 10.4678 9.05522 10.7892L11.4931 13.1295C11.791 13.4155 12.2497 13.4663 12.6054 13.2529L14.2633 12.2582C14.5999 12.0562 15.0315 12.0899 15.3311 12.3416L18.3636 14.8889V16.4445Z" fill="#B8C4D3"/>
</svg>
