<svg width="24" height="24" viewBox="0 0 24 24" fill="none" xmlns="http://www.w3.org/2000/svg">
<path fill-rule="evenodd" clip-rule="evenodd" d="M13.1429 5.14286C13.1429 4.51167 12.6312 4 12 4C11.3688 4 10.8571 4.51167 10.8571 5.14286V10.8571H5.14286C4.51167 10.8571 4 11.3688 4 12C4 12.6312 4.51167 13.1429 5.14286 13.1429H10.8571V18.8571C10.8571 19.4883 11.3688 20 12 20C12.6312 20 13.1429 19.4883 13.1429 18.8571V13.1429H18.8571C19.4883 13.1429 20 12.6312 20 12C20 11.3688 19.4883 10.8571 18.8571 10.8571H13.1429V5.14286Z" fill="#B8C4D3"/>
</svg>
