<svg width="24" height="24" viewBox="0 0 24 24" fill="none" xmlns="http://www.w3.org/2000/svg">
<path opacity="0.44" fill-rule="evenodd" clip-rule="evenodd" d="M15.9152 5.12681C19.7486 7.17415 21.2229 12.1462 18.864 15.9484C16.7999 19.7506 11.7871 21.213 7.95372 18.8732C4.1204 16.8259 2.94091 11.8538 5.00501 8.05157C7.36398 4.24938 12.0819 2.787 15.9152 5.12681ZM15.2627 6.27234C18.4572 7.97845 19.6858 12.1219 17.72 15.2904C15.9999 18.4588 11.8226 19.6775 8.62814 17.7277C5.4337 16.0215 4.4508 11.8781 6.17088 8.70964C8.13669 5.54115 12.0683 4.3225 15.2627 6.27234Z" fill="#B8C4D3"/>
<path fill-rule="evenodd" clip-rule="evenodd" d="M6.93107 18.1893C5.67968 17.1644 4.76837 15.7841 4.31738 14.2307L5.58254 13.8634C6.02767 15.4693 7.06219 16.8915 8.62822 17.7279C11.8227 19.6777 16 18.4591 17.7201 15.2906C19.6859 12.1221 18.4573 7.97867 15.2628 6.27256C13.4122 5.14299 11.3143 5.07678 9.4944 5.837L8.98714 4.58933C10.4856 3.98011 12.1335 3.83944 13.7135 4.18588C15.2936 4.53232 16.7315 5.34959 17.8375 6.52988C18.9436 7.71018 19.6659 9.19804 19.9092 10.7972C20.1524 12.3964 19.9052 14.0317 19.2001 15.4875C18.495 16.9433 17.3651 18.1511 15.9596 18.9517C14.554 19.7523 12.9388 20.108 11.327 19.9719C9.71517 19.8358 8.18247 19.2142 6.93107 18.1893Z" fill="#B8C4D3"/>
</svg>
