<svg width="24" height="24" viewBox="0 0 24 24" fill="none" xmlns="http://www.w3.org/2000/svg">
<path fill-rule="evenodd" clip-rule="evenodd" d="M10.8523 3.81812C10.3691 3.81812 9.97729 4.21608 9.97729 4.707H5.60229C5.11905 4.707 4.72729 5.10498 4.72729 5.59589C4.72729 6.08681 5.11905 6.48478 5.60229 6.48478H17.8523C18.3356 6.48478 18.7273 6.08681 18.7273 5.59589C18.7273 5.10498 18.3356 4.707 17.8523 4.707H13.4773C13.4773 4.21608 13.0855 3.81812 12.6023 3.81812H10.8523ZM5.60256 7.37378H17.8526L17.0356 18.9926C17.0029 19.4579 16.6219 19.8182 16.1628 19.8182H7.29229C6.83323 19.8182 6.45222 19.4579 6.41951 18.9926L5.60256 7.37378Z" fill="#B8C4D3"/>
</svg>
