<svg width="24" height="24" viewBox="0 0 24 24" fill="none" xmlns="http://www.w3.org/2000/svg">
<path d="M17.0313 7.07861L15.9529 18.7028H8.04728L6.96915 7.07861L5.60303 7.19189L6.70084 19.0269C6.75862 19.5724 7.25897 20.0001 7.84021 20.0001H16.16C16.741 20.0001 17.2416 19.5726 17.3003 19.0191L18.3974 7.19189L17.0313 7.07861Z" fill="#B8C4D3"/>
<path d="M11.472 9.30981C11.472 9.01789 11.7087 8.78125 12.0006 8.78125C12.2925 8.78125 12.5292 9.01789 12.5292 9.30981V17.2527C12.5292 17.5446 12.2925 17.7812 12.0006 17.7812C11.7087 17.7812 11.472 17.5446 11.472 17.2527V9.30981Z" fill="#B8C4D3"/>
<path d="M14.3265 17.7699C13.9832 17.7699 13.7032 17.4707 13.7244 17.1265L14.1971 9.44036C14.2158 9.13551 14.4613 8.90371 14.7654 8.90373C15.1176 8.90375 15.4045 9.21138 15.3815 9.56436L14.8815 17.2477C14.8622 17.5446 14.6227 17.7699 14.3265 17.7699Z" fill="#B8C4D3"/>
<path d="M8.61787 9.54822C8.59585 9.20989 8.87086 8.91504 9.20844 8.91504C9.49945 8.91504 9.73453 9.13661 9.75301 9.42833L10.2425 17.1563C10.2637 17.4903 9.99204 17.7811 9.65881 17.7811C9.37159 17.7811 9.13944 17.5627 9.1207 17.2748L8.61787 9.54822Z" fill="#B8C4D3"/>
<path d="M14.5141 4H9.48561C8.85544 4 8.34277 4.48497 8.34277 5.08109V7.13516H9.71415V5.29728H14.2854V7.13512H15.6568V5.08106C15.6569 4.48497 15.1442 4 14.5141 4Z" fill="#B8C4D3"/>
<path d="M19.3139 6.48633H4.6857C4.30696 6.48633 4 6.7767 4 7.13498C4 7.49327 4.30696 7.78364 4.6857 7.78364H19.3139C19.6927 7.78364 19.9996 7.49327 19.9996 7.13498C19.9996 6.7767 19.6926 6.48633 19.3139 6.48633Z" fill="#B8C4D3"/>
</svg>
