<svg width="24" height="24" viewBox="0 0 24 24" fill="none" xmlns="http://www.w3.org/2000/svg">
<path fill-rule="evenodd" clip-rule="evenodd" d="M14.0001 14.6665V13.3331C14.3 13.1844 15.1581 12.163 15.248 11.365C15.484 11.347 15.8547 11.1303 15.9641 10.2749C16.0227 9.81557 15.7894 9.55756 15.648 9.47623C15.648 9.47623 16.0001 8.80754 16.0001 8.00017C16.0001 6.38143 15.3647 5.00004 14.0001 5.00004C14.0001 5.00004 13.526 4 12 4C9.17201 4 8.00001 5.81408 8.00001 8.00017C8.00001 8.7362 8.35201 9.47623 8.35201 9.47623C8.21068 9.55756 7.97735 9.81624 8.03601 10.2749C8.14534 11.1303 8.51601 11.347 8.75201 11.365C8.84202 12.163 9.70002 13.1844 10 13.3331V14.6665C9.33335 16.6665 4 15.3332 4 20H20C20 15.3332 14.6667 16.6665 14.0001 14.6665Z" fill="#B8C4D3"/>
</svg>
