<?xml version="1.0" encoding="UTF-8" standalone="no"?>
<!DOCTYPE svg PUBLIC "-//W3C//DTD SVG 1.1//EN" "http://www.w3.org/Graphics/SVG/1.1/DTD/svg11.dtd">
<svg version="1.1" xmlns="http://www.w3.org/2000/svg" xmlns:xlink="http://www.w3.org/1999/xlink" preserveAspectRatio="xMidYMid meet" viewBox="0 0 24 24" width="24" height="24"><defs><path d="M17.04 7.56C17.31 7.83 18.64 9.16 21.04 11.56C21.04 11.56 21.04 11.56 21.04 11.56C21.14 11.66 21.21 11.77 21.26 11.88C21.31 12 21.33 12.13 21.33 12.27C21.33 12.4 21.31 12.53 21.26 12.65C21.23 12.71 21.2 12.76 21.17 12.82C21.13 12.87 21.09 12.92 21.04 12.97C21.04 12.97 21.04 12.97 21.04 12.97C18.64 15.37 17.31 16.71 17.04 16.97C16.65 17.36 16.02 17.36 15.63 16.97C15.24 16.58 15.24 15.95 15.63 15.56C15.78 15.41 16.54 14.64 17.92 13.27C9.77 13.27 5.24 13.27 4.33 13.27C3.78 13.27 3.33 12.82 3.33 12.27C3.33 11.71 3.78 11.27 4.33 11.27C5.24 11.27 9.77 11.27 17.92 11.27C16.54 9.89 15.78 9.13 15.63 8.97C15.24 8.58 15.24 7.95 15.63 7.56C16.02 7.17 16.65 7.17 17.04 7.56Z" id="k2rDLom6Zg"></path></defs><g><g><g><use xlink:href="#k2rDLom6Zg" opacity="1" fill="#568bf1" fill-opacity="1"></use><g><use xlink:href="#k2rDLom6Zg" opacity="1" fill-opacity="0" stroke="#000000" stroke-width="1" stroke-opacity="0"></use></g></g></g></g></svg>