<?xml version="1.0" encoding="UTF-8" standalone="no"?>
<!DOCTYPE svg PUBLIC "-//W3C//DTD SVG 1.1//EN" "http://www.w3.org/Graphics/SVG/1.1/DTD/svg11.dtd">
<svg version="1.1" xmlns="http://www.w3.org/2000/svg" xmlns:xlink="http://www.w3.org/1999/xlink" preserveAspectRatio="xMidYMid meet" viewBox="0 0 24 24" width="24" height="24"><defs><path d="M5.29 5.29C4.9 5.68 4.9 6.32 5.29 6.71C5.65 7.06 7.41 8.82 10.59 12C7.41 15.18 5.65 16.94 5.29 17.29C4.9 17.68 4.9 18.32 5.29 18.71C5.68 19.1 6.32 19.1 6.71 18.71C7.06 18.35 8.82 16.59 12 13.41C15.18 16.59 16.94 18.35 17.29 18.71C17.68 19.1 18.32 19.1 18.71 18.71C19.1 18.32 19.1 17.68 18.71 17.29C18.35 16.94 16.59 15.18 13.41 12C16.59 8.82 18.35 7.06 18.71 6.71C19.1 6.32 19.1 5.68 18.71 5.29C18.32 4.9 17.68 4.9 17.29 5.29C16.94 5.65 15.18 7.41 12 10.59L6.71 5.29C6.02 5.03 5.55 5.03 5.29 5.29Z" id="d9sUTyqyQ5"></path></defs><g><g><g><use xlink:href="#d9sUTyqyQ5" opacity="1" fill="#b8c4d3" fill-opacity="1"></use><g><use xlink:href="#d9sUTyqyQ5" opacity="1" fill-opacity="0" stroke="#000000" stroke-width="1" stroke-opacity="0"></use></g></g></g></g></svg>