<svg width="146" height="18" viewBox="0 0 146 18" fill="none" xmlns="http://www.w3.org/2000/svg">
<path d="M9.92676 14.0005H12.4502L7.7002 0.613281H5.00049L0.250488 14.0005H2.71826L3.85938 10.5401H8.78564L9.92676 14.0005ZM6.29004 2.97901H6.35498L8.21973 8.69385H4.41602L6.29004 2.97901ZM19.0093 14.0005L23.6665 0.613281H21.0874L17.6919 11.4307H17.6362L14.2407 0.613281H11.606L16.2632 14.0005H19.0093ZM32.4893 14.0005H35.0127L30.2627 0.613281H27.563L22.813 14.0005H25.2808L26.4219 10.5401H31.3481L32.4893 14.0005ZM28.8525 2.97901H28.9175L30.7822 8.69385H26.9785L28.8525 2.97901ZM35.7178 10.2339C35.8198 12.7017 37.8423 14.2232 40.9224 14.2232C44.1602 14.2232 46.2012 12.6275 46.2012 10.0855C46.2012 8.09082 45.0508 6.96826 42.3325 6.34668L40.7925 5.99414C39.1504 5.60449 38.4731 5.08496 38.4731 4.19434C38.4731 3.08106 39.4937 2.33887 41.0059 2.33887C42.5366 2.33887 43.585 3.09033 43.6963 4.34278H45.9785C45.9229 1.98633 43.9746 0.390625 41.0244 0.390625C38.1113 0.390625 36.0425 1.99561 36.0425 4.37061C36.0425 6.28174 37.2114 7.46924 39.6792 8.03516L41.4141 8.44336C43.1025 8.84229 43.7891 9.39893 43.7891 10.3638C43.7891 11.4771 42.6665 12.2749 41.0522 12.2749C39.4194 12.2749 38.1855 11.4678 38.0371 10.2339H35.7178ZM48.4185 1.86572V4.16651H47.0083V5.94776H48.4185V11.3843C48.4185 13.2954 49.2534 14.0469 51.3779 14.0469C51.8696 14.0469 52.3242 14.0098 52.5747 13.9541V12.1914C52.4263 12.2193 52.1294 12.2378 51.916 12.2378C51.0996 12.2378 50.7285 11.8667 50.7285 11.0596V5.94776H52.584V4.16651H50.7285V1.86572H48.4185ZM57.6216 12.4141C56.6196 12.4141 55.9517 11.9038 55.9517 11.0967C55.9517 10.3174 56.5918 9.81641 57.7051 9.74219L59.978 9.60303V10.3545C59.978 11.542 58.9297 12.4141 57.6216 12.4141ZM56.9258 14.1582C58.1875 14.1582 59.4214 13.4995 59.9873 12.4326H60.0337V14.0005H62.2603V7.22803C62.2603 5.25195 60.6738 3.9624 58.2339 3.9624C55.729 3.9624 54.1611 5.27979 54.0591 7.1167H56.2021C56.3506 6.30029 57.0464 5.77149 58.1411 5.77149C59.2822 5.77149 59.978 6.36524 59.978 7.39502V8.1001L57.3804 8.24854C54.9868 8.39697 53.6416 9.44531 53.6416 11.1895C53.6416 12.9614 55.0239 14.1582 56.9258 14.1582ZM64.125 14.0005H66.4351V8.27637C66.4351 6.89404 67.2236 6.04981 68.5317 6.04981C68.9214 6.04981 69.2739 6.10547 69.4688 6.17969V4.09229C69.3018 4.05518 69.042 3.99951 68.7451 3.99951C67.5854 3.99951 66.7227 4.68604 66.3887 5.88281H66.3423V4.16651H64.125V14.0005Z" fill="#1890FF"/>
<path d="M74.1445 10.2339C74.2466 12.7017 76.269 14.2232 79.3491 14.2232C82.5869 14.2232 84.6279 12.6275 84.6279 10.0855C84.6279 8.09082 83.4775 6.96826 80.7593 6.34668L79.2192 5.99414C77.5771 5.60449 76.8999 5.08496 76.8999 4.19434C76.8999 3.08106 77.9204 2.33887 79.4326 2.33887C80.9634 2.33887 82.0117 3.09033 82.123 4.34278H84.4053C84.3496 1.98633 82.4014 0.390625 79.4512 0.390625C76.5381 0.390625 74.4692 1.99561 74.4692 4.37061C74.4692 6.28174 75.6382 7.46924 78.106 8.03516L79.8408 8.44336C81.5293 8.84229 82.2158 9.39893 82.2158 10.3638C82.2158 11.4771 81.0933 12.2749 79.479 12.2749C77.8462 12.2749 76.6123 11.4678 76.4639 10.2339H74.1445ZM87.2998 17.6558C89.5449 17.6558 90.6304 16.8301 91.4746 14.3901L95.0278 4.16651H92.5972L90.2778 12.0337H90.2407L87.9214 4.16651H85.3979L88.8955 14.0098C88.9048 14.0376 88.7656 14.5293 88.7656 14.5571C88.5059 15.4663 88.0142 15.8281 87.0586 15.8281C86.9194 15.8281 86.5112 15.8189 86.3906 15.791V17.6187C86.5112 17.6465 87.1699 17.6558 87.2998 17.6558ZM95.9185 6.98682C95.9185 8.40625 96.8369 9.35254 98.6553 9.7793L100.446 10.1968C101.401 10.438 101.763 10.7442 101.763 11.3193C101.763 12.0523 101.067 12.5068 99.9448 12.5068C98.7759 12.5068 98.0801 12.0059 97.9409 11.106H95.668C95.8257 12.9707 97.3936 14.1953 99.8613 14.1953C102.348 14.1953 104.064 12.9429 104.064 11.0874C104.064 9.63086 103.294 8.87012 101.327 8.40625L99.5737 8.0166C98.6089 7.78467 98.1636 7.41358 98.1636 6.85694C98.1636 6.14258 98.8315 5.66016 99.8521 5.66016C100.928 5.66016 101.605 6.17969 101.68 7.02393H103.832C103.776 5.20557 102.208 3.9624 99.8984 3.9624C97.5049 3.9624 95.9185 5.18701 95.9185 6.98682ZM106.179 1.86572V4.16651H104.769V5.94776H106.179V11.3843C106.179 13.2954 107.014 14.0469 109.139 14.0469C109.63 14.0469 110.085 14.0098 110.335 13.9541V12.1914C110.187 12.2193 109.89 12.2378 109.677 12.2378C108.86 12.2378 108.489 11.8667 108.489 11.0596V5.94776H110.345V4.16651H108.489V1.86572H106.179ZM115.976 5.75293C117.303 5.75293 118.193 6.72705 118.24 8.11865H113.647C113.74 6.74561 114.677 5.75293 115.976 5.75293ZM118.249 11.0596C117.999 11.876 117.182 12.4141 116.106 12.4141C114.594 12.4141 113.629 11.3565 113.629 9.7793V9.64014H120.503V8.88867C120.503 5.90137 118.759 3.9624 115.967 3.9624C113.128 3.9624 111.328 6.0127 111.328 9.12061C111.328 12.2564 113.109 14.1953 116.06 14.1953C118.388 14.1953 120.114 12.9151 120.411 11.0596H118.249ZM121.997 14.0005H124.307V7.97949C124.307 6.79199 125.086 5.9292 126.2 5.9292C127.276 5.9292 127.944 6.60645 127.944 7.70117V14.0005H130.189V7.92383C130.189 6.74561 130.95 5.9292 132.063 5.9292C133.195 5.9292 133.826 6.61572 133.826 7.82178V14.0005H136.136V7.25586C136.136 5.28906 134.865 3.98096 132.926 3.98096C131.506 3.98096 130.337 4.7417 129.864 5.95703H129.809C129.447 4.69531 128.454 3.98096 127.062 3.98096C125.727 3.98096 124.688 4.73242 124.261 5.87354H124.214V4.16651H121.997V14.0005ZM137.815 6.98682C137.815 8.40625 138.733 9.35254 140.552 9.7793L142.342 10.1968C143.298 10.438 143.66 10.7442 143.66 11.3193C143.66 12.0523 142.964 12.5068 141.841 12.5068C140.672 12.5068 139.977 12.0059 139.837 11.106H137.564C137.722 12.9707 139.29 14.1953 141.758 14.1953C144.244 14.1953 145.96 12.9429 145.96 11.0874C145.96 9.63086 145.19 8.87012 143.224 8.40625L141.47 8.0166C140.505 7.78467 140.06 7.41358 140.06 6.85694C140.06 6.14258 140.728 5.66016 141.749 5.66016C142.825 5.66016 143.502 6.17969 143.576 7.02393H145.729C145.673 5.20557 144.105 3.9624 141.795 3.9624C139.401 3.9624 137.815 5.18701 137.815 6.98682Z" fill="#8C8C8C"/>
</svg>
